# xmcd CD database file
#
# Track frame offsets:
#	150
#	12380
#	20285
#	34825
#	56115
#	73545
#	95350
#	112740
#	135100
#	157445
#	179235
#	201640
#	223775
#	246320
#
# Disc length: 3593 seconds
#
# Revision: 1
# Processed by: cddbd v1.5.2PL0 Copyright (c) Steve Scherf et al.
# Submitted via: CDex 1.51
#
DISCID=d00e070e
DTITLE=Diversos - Remix Sertanejo
DYEAR=1900
DGENRE=Sertanejo
TTITLE0=Festa de Rodeio - Paz na Cama - O que tiver de vir virá
TTITLE1=Eu me amarrei - Mais uma Noite sem você - Rosto molhado
TTITLE2=Bailão de Peão - Coração sertanejo - Festa de Rodeio
TTITLE3=Faz mais uma vez comigo - Muda de Vida - Tudo de Novo
TTITLE4=Entre um Gole e Outro - Casa Separa - Pedindo
TTITLE5=Preciso Ser Amado - Doce Mistério - Bobo
TTITLE6=1, 2, 3, - Viúva Nova - Mexe, Mexe
TTITLE7=Doce Pecado - Achei Uma Louca - Pode Ser Pra Valer
TTITLE8=Deixa - Temporal de Amor - Minha Estrela Perdida
TTITLE9=Dor de Amor Não Tem Jeito
TTITLE10=Coração Deserto - Só Dá Você na Minha Vida - Você Só Me Faz Feliz
TTITLE11=Diz Pra Mim - Olha, Amor - Você Vai Ver
TTITLE12=Tudo Por Amor - Confidências - Minha Gioconda
TTITLE13=Filho Adotivo - Rei do Gado
EXTD=
EXTT0=
EXTT1=
EXTT2=
EXTT3=
EXTT4=
EXTT5=
EXTT6=
EXTT7=
EXTT8=
EXTT9=
EXTT10=
EXTT11=
EXTT12=
EXTT13=
PLAYORDER=
